# xmcd
#
# Track frame offsets:
# 150
# 5251
# 19273
# 33422
# 46213
# 61868
# 71739
# 81281
# 90532
# 99638
# 110163
# 112147
# 122838
# 136168
# 151819
# 165631
# 180305
# 194123
# 198133
# 223681
# 238039
# 251456
# 264190
# 278253
# 302412
#
# Disc length: 4355 seconds
#
# Revision: 0
# Processed by: cddbd v1.5.2PL0 Copyright (c) Steve Scherf et al.
# Submitted via: Audion 3.0.2 (http://www.panic.com/audion/)
#
DISCID=4f110119
DTITLE=killer's soul 10 - killer's soul 10
DYEAR=1900
DGENRE=
TTITLE0=killer's soul 10
TTITLE1=killer's soul 10
TTITLE2=killer's soul 10
TTITLE3=killer's soul 10
TTITLE4=killer's soul 10
TTITLE5=killer's soul 10
TTITLE6=killer's soul 10
TTITLE7=killer's soul 10
TTITLE8=killer's soul 10
TTITLE9=killer's soul 10
TTITLE10=killer's soul 10
TTITLE11=killer's soul 10
TTITLE12=killer's soul 10
TTITLE13=killer's soul 10
TTITLE14=killer's soul 10
TTITLE15=killer's soul 10
TTITLE16=killer's soul 10
TTITLE17=killer's soul 10
TTITLE18=killer's soul 10
TTITLE19=killer's soul 10
TTITLE20=killer's soul 10
TTITLE21=killer's soul 10
TTITLE22=killer's soul 10
TTITLE23=killer's soul 10
TTITLE24=killer's soul 10
EXTD=
EXTT0=
EXTT1=
EXTT2=
EXTT3=
EXTT4=
EXTT5=
EXTT6=
EXTT7=
EXTT8=
EXTT9=
EXTT10=
EXTT11=
EXTT12=
EXTT13=
EXTT14=
EXTT15=
EXTT16=
EXTT17=
EXTT18=
EXTT19=
EXTT20=
EXTT21=
EXTT22=
EXTT23=
EXTT24=
PLAYORDER=
